<svg width="823" height="188" viewBox="0 0 823 188" fill="none" xmlns="http://www.w3.org/2000/svg">
<g filter="url(#filter0_dd_2017_207)">
<g filter="url(#filter1_d_2017_207)">
<rect x="4" y="8" width="776" height="170" fill="#00BA46"/>
</g>
<path d="M329.911 127V68.824H308.119V55.96H366.487V68.824H344.695V127H329.911ZM388.182 70.168V67C388.182 66.168 388.342 65.4 388.661 64.696C389.046 63.928 389.686 63.352 390.582 62.968L392.022 62.2C393.366 61.496 394.39 60.824 395.094 60.184C395.798 59.48 396.15 58.648 396.15 57.688C396.15 56.856 395.83 56.12 395.19 55.48C394.614 54.84 393.75 54.52 392.598 54.52C391.446 54.52 390.582 54.808 390.006 55.384C389.494 55.96 389.174 56.568 389.046 57.208C388.918 57.848 388.854 58.232 388.854 58.36H380.502C380.438 56.632 380.79 54.936 381.558 53.272C382.39 51.544 383.702 50.104 385.494 48.952C387.286 47.8 389.622 47.224 392.502 47.224C396.342 47.224 399.382 48.248 401.622 50.296C403.862 52.28 404.982 54.616 404.982 57.304C404.982 59.608 404.214 61.56 402.678 63.16C401.206 64.696 399.318 66.04 397.014 67.192L396.534 67.48V70.168H388.182ZM387.894 75.16C391.158 75.16 393.846 75.704 395.958 76.792C398.07 77.816 399.67 78.936 400.758 80.152C401.91 81.368 402.614 82.2 402.87 82.648H403.638V76.12H418.23V127H403.638V120.472H402.87C402.614 120.92 401.91 121.752 400.758 122.968C399.67 124.184 398.07 125.336 395.958 126.424C393.846 127.448 391.158 127.96 387.894 127.96C384.118 127.96 380.822 127.224 378.006 125.752C375.254 124.216 372.95 122.2 371.094 119.704C369.238 117.144 367.83 114.296 366.87 111.16C365.974 108.024 365.526 104.824 365.526 101.56C365.526 98.296 365.974 95.096 366.87 91.96C367.83 88.824 369.238 86.008 371.094 83.512C372.95 80.952 375.254 78.936 378.006 77.464C380.822 75.928 384.118 75.16 387.894 75.16ZM392.118 86.968C389.494 86.968 387.286 87.704 385.494 89.176C383.766 90.584 382.454 92.408 381.558 94.648C380.726 96.888 380.31 99.192 380.31 101.56C380.31 103.928 380.726 106.232 381.558 108.472C382.454 110.712 383.766 112.568 385.494 114.04C387.286 115.448 389.494 116.152 392.118 116.152C394.742 116.152 396.918 115.448 398.646 114.04C400.438 112.568 401.75 110.712 402.582 108.472C403.478 106.232 403.926 103.928 403.926 101.56C403.926 99.192 403.478 96.888 402.582 94.648C401.75 92.408 400.438 90.584 398.646 89.176C396.918 87.704 394.742 86.968 392.118 86.968ZM438.583 69.208C436.023 69.208 433.943 68.408 432.343 66.808C430.743 65.144 429.943 63.192 429.943 60.952C429.943 58.584 430.743 56.6 432.343 55C433.943 53.336 436.023 52.504 438.583 52.504C441.015 52.504 443.063 53.336 444.727 55C446.391 56.6 447.223 58.584 447.223 60.952C447.223 63.192 446.391 65.144 444.727 66.808C443.063 68.408 441.015 69.208 438.583 69.208ZM431.287 127V76.12H445.879V127H431.287ZM502.65 70.168V67C502.65 66.168 502.81 65.4 503.13 64.696C503.514 63.928 504.154 63.352 505.05 62.968L506.49 62.2C507.834 61.496 508.858 60.824 509.562 60.184C510.266 59.48 510.618 58.648 510.618 57.688C510.618 56.856 510.298 56.12 509.658 55.48C509.082 54.84 508.218 54.52 507.066 54.52C505.914 54.52 505.05 54.808 504.474 55.384C503.962 55.96 503.642 56.568 503.514 57.208C503.386 57.848 503.322 58.232 503.322 58.36H494.97C494.906 56.632 495.258 54.936 496.026 53.272C496.858 51.544 498.17 50.104 499.962 48.952C501.754 47.8 504.09 47.224 506.97 47.224C510.81 47.224 513.85 48.248 516.09 50.296C518.33 52.28 519.45 54.616 519.45 57.304C519.45 59.608 518.682 61.56 517.146 63.16C515.674 64.696 513.786 66.04 511.482 67.192L511.002 67.48V70.168H502.65ZM502.362 75.16C505.626 75.16 508.314 75.704 510.426 76.792C512.538 77.816 514.138 78.936 515.226 80.152C516.378 81.368 517.082 82.2 517.338 82.648H518.106V76.12H532.698V127H518.106V120.472H517.338C517.082 120.92 516.378 121.752 515.226 122.968C514.138 124.184 512.538 125.336 510.426 126.424C508.314 127.448 505.626 127.96 502.362 127.96C498.586 127.96 495.29 127.224 492.474 125.752C489.722 124.216 487.418 122.2 485.562 119.704C483.706 117.144 482.298 114.296 481.338 111.16C480.442 108.024 479.994 104.824 479.994 101.56C479.994 98.296 480.442 95.096 481.338 91.96C482.298 88.824 483.706 86.008 485.562 83.512C487.418 80.952 489.722 78.936 492.474 77.464C495.29 75.928 498.586 75.16 502.362 75.16ZM506.586 86.968C503.962 86.968 501.754 87.704 499.962 89.176C498.234 90.584 496.922 92.408 496.026 94.648C495.194 96.888 494.778 99.192 494.778 101.56C494.778 103.928 495.194 106.232 496.026 108.472C496.922 110.712 498.234 112.568 499.962 114.04C501.754 115.448 503.962 116.152 506.586 116.152C509.21 116.152 511.386 115.448 513.114 114.04C514.906 112.568 516.218 110.712 517.05 108.472C517.946 106.232 518.394 103.928 518.394 101.56C518.394 99.192 517.946 96.888 517.05 94.648C516.218 92.408 514.906 90.584 513.114 89.176C511.386 87.704 509.21 86.968 506.586 86.968ZM544.412 127V76.12H559.004V83.416H559.484C560.06 82.392 560.892 81.24 561.98 79.96C563.132 78.68 564.636 77.56 566.492 76.6C568.412 75.64 570.844 75.16 573.788 75.16C577.756 75.16 580.988 76.088 583.484 77.944C585.98 79.736 587.804 82.072 588.956 84.952C590.108 87.768 590.684 90.744 590.684 93.88V127H576.092V96.376C576.092 93.944 575.42 91.8 574.076 89.944C572.796 88.088 570.716 87.16 567.836 87.16C565.66 87.16 563.932 87.672 562.652 88.696C561.372 89.72 560.444 91.032 559.868 92.632C559.292 94.232 559.004 95.928 559.004 97.72V127H544.412ZM602.747 127V54.04H617.339V83.416H617.819C618.395 82.392 619.227 81.24 620.315 79.96C621.467 78.68 622.971 77.56 624.827 76.6C626.747 75.64 629.179 75.16 632.123 75.16C636.091 75.16 639.323 76.088 641.819 77.944C644.315 79.736 646.139 82.072 647.291 84.952C648.443 87.768 649.019 90.744 649.019 93.88V127H634.427V96.376C634.427 93.944 633.755 91.8 632.411 89.944C631.131 88.088 629.051 87.16 626.171 87.16C623.995 87.16 622.267 87.672 620.987 88.696C619.707 89.72 618.779 91.032 618.203 92.632C617.627 94.232 617.339 95.928 617.339 97.72V127H602.747Z" fill="white"/>
<g clip-path="url(#clip0_2017_207)">
<path d="M207.49 138.257H101.502C97.5522 138.257 93.8441 136.713 91.0572 133.915C88.2625 131.101 86.7324 127.378 86.7324 123.436V70.2267C86.7324 67.6717 88.7933 65.6025 91.3382 65.6025C93.8831 65.6025 95.944 67.6717 95.944 70.2267V123.436C95.944 124.917 96.5295 126.328 97.5834 127.386C98.6294 128.436 100.019 129.008 101.51 129.008H207.498C208.989 129.008 210.387 128.428 211.433 127.378C212.479 126.32 213.064 124.917 213.064 123.436V70.2267C213.064 67.6717 215.125 65.6025 217.67 65.6025C220.215 65.6025 222.276 67.6717 222.276 70.2267V123.436C222.276 127.378 220.746 131.101 217.959 133.907C215.164 136.713 211.448 138.257 207.506 138.257H207.49Z" fill="white" stroke="white" stroke-width="7" stroke-miterlimit="10"/>
<path d="M154.5 33.7432C151.955 33.7432 149.895 35.8123 149.895 38.3673V95.2993C149.895 97.8543 151.955 99.9234 154.5 99.9234C157.045 99.9234 159.106 97.8543 159.106 95.2993V38.3673C159.106 35.8123 157.045 33.7432 154.5 33.7432Z" fill="white" stroke="white" stroke-width="7" stroke-miterlimit="10"/>
<path d="M175.507 64.3252C174.086 64.3252 172.673 64.9914 171.776 66.2376L154.094 90.7769L137.224 67.3662C135.733 65.2971 132.853 64.8503 130.799 66.3316C128.739 67.8286 128.27 70.7206 129.769 72.7819L154.094 106.562L179.238 71.6533C180.73 69.5842 180.261 66.7 178.208 65.203C177.388 64.6152 176.444 64.3252 175.515 64.3252H175.507Z" fill="white" stroke="white" stroke-width="7" stroke-miterlimit="10"/>
</g>
</g>
<defs>
<filter id="filter0_dd_2017_207" x="0" y="0" width="784" height="186" filterUnits="userSpaceOnUse" color-interpolation-filters="sRGB">
<feFlood flood-opacity="0" result="BackgroundImageFix"/>
<feColorMatrix in="SourceAlpha" type="matrix" values="0 0 0 0 0 0 0 0 0 0 0 0 0 0 0 0 0 0 127 0" result="hardAlpha"/>
<feOffset dy="4"/>
<feGaussianBlur stdDeviation="2"/>
<feComposite in2="hardAlpha" operator="out"/>
<feColorMatrix type="matrix" values="0 0 0 0 0 0 0 0 0 0 0 0 0 0 0 0 0 0 0.25 0"/>
<feBlend mode="normal" in2="BackgroundImageFix" result="effect1_dropShadow_2017_207"/>
<feColorMatrix in="SourceAlpha" type="matrix" values="0 0 0 0 0 0 0 0 0 0 0 0 0 0 0 0 0 0 127 0" result="hardAlpha"/>
<feOffset dy="-4"/>
<feGaussianBlur stdDeviation="2"/>
<feComposite in2="hardAlpha" operator="out"/>
<feColorMatrix type="matrix" values="0 0 0 0 0 0 0 0 0 0 0 0 0 0 0 0 0 0 0.25 0"/>
<feBlend mode="normal" in2="effect1_dropShadow_2017_207" result="effect2_dropShadow_2017_207"/>
<feBlend mode="normal" in="SourceGraphic" in2="effect2_dropShadow_2017_207" result="shape"/>
</filter>
<filter id="filter1_d_2017_207" x="4" y="8" width="785" height="180" filterUnits="userSpaceOnUse" color-interpolation-filters="sRGB">
<feFlood flood-opacity="0" result="BackgroundImageFix"/>
<feColorMatrix in="SourceAlpha" type="matrix" values="0 0 0 0 0 0 0 0 0 0 0 0 0 0 0 0 0 0 127 0" result="hardAlpha"/>
<feOffset dx="9" dy="10"/>
<feComposite in2="hardAlpha" operator="out"/>
<feColorMatrix type="matrix" values="0 0 0 0 1 0 0 0 0 1 0 0 0 0 1 0 0 0 1 0"/>
<feBlend mode="normal" in2="BackgroundImageFix" result="effect1_dropShadow_2017_207"/>
<feBlend mode="normal" in="SourceGraphic" in2="effect1_dropShadow_2017_207" result="shape"/>
</filter>
<clipPath id="clip0_2017_207">
<rect width="141" height="110" fill="white" transform="translate(84 31)"/>
</clipPath>
</defs>
</svg>
