<svg width="155" height="182" viewBox="0 0 155 182" fill="none" xmlns="http://www.w3.org/2000/svg">
<g clip-path="url(#clip0_2017_188)">
<path d="M118.001 82.7275H27.3652V99.273H118.001V82.7275Z" fill="white"/>
<path d="M45.8055 130.244L0 91.0001L45.8055 51.7559L56.6743 64.291L25.4951 91.0001L56.6743 117.709L45.8055 130.244Z" fill="white"/>
<path d="M136.813 182H45.5511C35.5227 182 27.3652 173.893 27.3652 163.926V137.879H44.0131V163.926C44.0131 164.769 44.7028 165.455 45.5511 165.455H136.813C137.662 165.455 138.351 164.769 138.351 163.926V18.0739C138.351 17.2309 137.662 16.5455 136.813 16.5455H45.5511C44.7028 16.5455 44.0131 17.2309 44.0131 18.0739V44.1212H27.3652V18.0739C27.3652 8.10727 35.5227 0 45.5511 0H136.813C146.842 0 154.999 8.10727 154.999 18.0739V163.926C154.999 173.893 146.842 182 136.813 182Z" fill="white"/>
</g>
<defs>
<clipPath id="clip0_2017_188">
<rect width="155" height="182" fill="white"/>
</clipPath>
</defs>
</svg>
