<svg width="395" height="396" viewBox="0 0 395 396" fill="none" xmlns="http://www.w3.org/2000/svg">
<path d="M374.187 41.0977C354.502 14.4835 321.014 -0.525189 288.172 0.0483637C231.99 0.155905 175.806 0.120058 119.66 0.0842108C98.4701 -0.417648 76.491 1.08793 57.3824 11.0803C24.3948 27.021 1.44924 61.5507 0.408708 98.3028C-0.488304 149.669 0.408708 201.072 0.157545 252.438C0.480469 278.015 -1.8854 304.558 7.2574 329.023C16.4361 355.458 37.9846 376.377 63.4036 387.447C72.9613 391.451 82.8553 393.555 92.9265 394.612C115.643 396.994 275.944 395.844 301.473 394.612C301.724 394.601 301.977 394.59 302.229 394.576C342.888 391.926 379.316 361.478 390.968 322.793C395.558 308.142 394.877 292.632 394.948 277.48C394.59 220.095 394.877 162.747 394.984 105.362C395.379 82.4383 388.387 59.2609 374.189 41.0999L374.187 41.0977Z" fill="#CFCFCF"/>
<path d="M135.68 181.95C158.56 159.82 194.9 159.29 218.43 180.74C218.46 180.77 218.5 180.8 218.53 180.83C223.24 185.23 223.51 192.62 219.11 197.33C214.72 202.03 207.38 202.31 202.66 197.94C188.21 184.81 165.93 185.15 151.9 198.72L127.86 221.97C121.07 228.54 117.33 237.29 117.33 246.609C117.33 255.93 121.07 264.68 127.86 271.25C127.871 271.261 127.931 271.32 127.94 271.33C142.25 285.18 165.61 285.17 179.96 271.29C180.08 271.18 180.2 271.07 180.32 270.96L191.23 261.25C196.04 256.97 203.42 257.4 207.7 262.21C211.98 267.02 211.55 274.4 206.74 278.68L196 288.23C184.37 299.38 169.15 304.96 153.93 304.96C138.63 304.96 123.33 299.33 111.68 288.06C111.669 288.049 111.61 287.99 111.6 287.98C100.26 277.01 94 262.309 94 246.609C94.0001 230.91 100.26 216.2 111.64 205.2L135.68 181.95ZM201.96 111.739C225.27 89.3795 263.04 89.4401 286.28 111.92C286.32 111.96 286.36 111.99 286.39 112.029C297.72 123.019 303.96 137.699 303.96 153.369C303.96 169.039 297.7 183.779 286.32 194.779L262.28 218.029C250.61 229.319 235.44 234.98 220.26 234.98L220.27 234.97C205.68 234.97 191.07 229.74 179.54 219.22C174.79 214.89 174.43 207.52 178.74 202.76C183.05 198 190.4 197.609 195.17 201.909L195.2 201.94C209.7 215.159 232.02 214.839 246.06 201.249L270.1 177.999C276.89 171.429 280.63 162.679 280.63 153.36C280.63 144.04 276.89 135.29 270.1 128.72C270.07 128.69 270.03 128.649 270 128.619C255.64 114.789 232.33 114.81 218 128.68C217.88 128.79 217.76 128.9 217.64 129.01L206.729 138.72C201.92 142.999 194.54 142.57 190.26 137.76C185.98 132.95 186.41 125.569 191.22 121.289L201.96 111.739Z" fill="white"/>
</svg>
