<svg width="794" height="188" viewBox="0 0 794 188" fill="none" xmlns="http://www.w3.org/2000/svg">
<g filter="url(#filter0_dd_2017_204)">
<g filter="url(#filter1_d_2017_204)">
<rect x="4" y="8" width="776" height="170" fill="#00BA46"/>
</g>
<g clip-path="url(#clip0_2017_204)">
<path d="M169.638 70.1471L166.465 46.2871C166.465 43.4858 170.042 41.9751 172.355 43.797L212.333 81.7393C214.563 83.8574 214.563 87.3267 212.333 89.4447L172.355 127.387C170.042 129.209 166.465 127.698 166.465 124.897L169.638 97.2867H141.525C118.754 97.2867 99.1953 113.441 94.9562 135.76C93.6777 139.283 88.0078 138.44 88.0078 134.728V117.435C88.0078 91.3198 109.234 70.1471 135.414 70.1471H169.646H169.638Z" fill="white"/>
</g>
<path d="M310.791 127.96C304.903 127.96 299.751 126.936 295.335 124.888C290.983 122.776 287.335 119.992 284.391 116.536C281.447 113.016 279.239 109.08 277.767 104.728C276.295 100.376 275.559 95.928 275.559 91.384C275.559 86.904 276.295 82.488 277.767 78.136C279.239 73.784 281.447 69.88 284.391 66.424C287.335 62.904 290.983 60.12 295.335 58.072C299.751 56.024 304.903 55 310.791 55C315.719 55 319.911 55.64 323.367 56.92C326.887 58.136 329.799 59.736 332.103 61.72C334.471 63.64 336.359 65.72 337.767 67.96C339.239 70.136 340.327 72.216 341.031 74.2C341.735 76.12 342.183 77.72 342.375 79C342.631 80.216 342.759 80.824 342.759 80.824H328.071C328.071 80.824 327.943 80.408 327.687 79.576C327.495 78.68 327.079 77.624 326.439 76.408C325.799 75.128 324.839 73.88 323.559 72.664C322.343 71.448 320.679 70.424 318.567 69.592C316.519 68.696 313.959 68.248 310.887 68.248C306.471 68.248 302.759 69.4 299.751 71.704C296.807 73.944 294.567 76.824 293.031 80.344C291.559 83.864 290.823 87.544 290.823 91.384C290.823 95.224 291.559 98.936 293.031 102.52C294.567 106.04 296.807 108.952 299.751 111.256C302.759 113.496 306.471 114.616 310.887 114.616C313.959 114.616 316.519 114.2 318.567 113.368C320.679 112.536 322.343 111.512 323.559 110.296C324.839 109.016 325.799 107.768 326.439 106.552C327.079 105.272 327.495 104.216 327.687 103.384C327.943 102.552 328.071 102.136 328.071 102.136H342.759C342.759 102.136 342.631 102.776 342.375 104.056C342.183 105.272 341.735 106.872 341.031 108.856C340.327 110.776 339.239 112.856 337.767 115.096C336.359 117.272 334.471 119.352 332.103 121.336C329.799 123.256 326.887 124.856 323.367 126.136C319.911 127.352 315.719 127.96 310.791 127.96ZM353.153 127V54.04H367.745V83.416H368.225C368.801 82.392 369.633 81.24 370.721 79.96C371.873 78.68 373.377 77.56 375.233 76.6C377.153 75.64 379.585 75.16 382.529 75.16C386.497 75.16 389.729 76.088 392.225 77.944C394.721 79.736 396.545 82.072 397.697 84.952C398.849 87.768 399.425 90.744 399.425 93.88V127H384.833V96.376C384.833 93.944 384.161 91.8 382.817 89.944C381.537 88.088 379.457 87.16 376.577 87.16C374.401 87.16 372.673 87.672 371.393 88.696C370.113 89.72 369.185 91.032 368.609 92.632C368.033 94.232 367.745 95.928 367.745 97.72V127H353.153ZM419.239 69.208C416.679 69.208 414.599 68.408 412.999 66.808C411.399 65.144 410.599 63.192 410.599 60.952C410.599 58.584 411.399 56.6 412.999 55C414.599 53.336 416.679 52.504 419.239 52.504C421.671 52.504 423.719 53.336 425.383 55C427.047 56.6 427.879 58.584 427.879 60.952C427.879 63.192 427.047 65.144 425.383 66.808C423.719 68.408 421.671 69.208 419.239 69.208ZM411.943 127V76.12H426.535V127H411.943ZM460.702 75.16C463.966 75.16 466.654 75.704 468.766 76.792C470.878 77.816 472.478 78.936 473.566 80.152C474.718 81.368 475.422 82.2 475.678 82.648H476.446V76.12H491.038V127H476.446V120.472H475.678C475.422 120.92 474.718 121.752 473.566 122.968C472.478 124.184 470.878 125.336 468.766 126.424C466.654 127.448 463.966 127.96 460.702 127.96C456.926 127.96 453.63 127.224 450.814 125.752C448.062 124.216 445.758 122.2 443.902 119.704C442.046 117.144 440.638 114.296 439.678 111.16C438.782 108.024 438.334 104.824 438.334 101.56C438.334 98.296 438.782 95.096 439.678 91.96C440.638 88.824 442.046 86.008 443.902 83.512C445.758 80.952 448.062 78.936 450.814 77.464C453.63 75.928 456.926 75.16 460.702 75.16ZM464.926 86.968C462.302 86.968 460.094 87.704 458.302 89.176C456.574 90.584 455.262 92.408 454.366 94.648C453.534 96.888 453.118 99.192 453.118 101.56C453.118 103.928 453.534 106.232 454.366 108.472C455.262 110.712 456.574 112.568 458.302 114.04C460.094 115.448 462.302 116.152 464.926 116.152C467.55 116.152 469.726 115.448 471.454 114.04C473.246 112.568 474.558 110.712 475.39 108.472C476.286 106.232 476.734 103.928 476.734 101.56C476.734 99.192 476.286 96.888 475.39 94.648C474.558 92.408 473.246 90.584 471.454 89.176C469.726 87.704 467.55 86.968 464.926 86.968ZM545.726 127.96C541.502 127.96 538.014 127.384 535.262 126.232C532.51 125.08 530.302 123.672 528.638 122.008C527.038 120.28 525.822 118.584 524.99 116.92C524.222 115.192 523.71 113.752 523.454 112.6C523.262 111.448 523.166 110.872 523.166 110.872H536.702C536.702 110.872 536.798 111.192 536.99 111.832C537.182 112.472 537.598 113.208 538.238 114.04C538.942 114.872 539.934 115.608 541.214 116.248C542.494 116.888 544.222 117.208 546.398 117.208C549.086 117.208 550.91 116.664 551.87 115.576C552.894 114.488 553.406 113.4 553.406 112.312C553.406 110.008 551.518 108.472 547.742 107.704L540.83 106.36C537.886 105.784 535.102 104.952 532.478 103.864C529.918 102.712 527.838 101.144 526.238 99.16C524.702 97.112 523.934 94.488 523.934 91.288C523.934 88.216 524.734 85.464 526.334 83.032C527.934 80.6 530.206 78.68 533.15 77.272C536.158 75.864 539.742 75.16 543.902 75.16C547.806 75.16 551.038 75.704 553.598 76.792C556.222 77.816 558.302 79.128 559.838 80.728C561.374 82.264 562.526 83.832 563.294 85.432C564.062 86.968 564.542 88.28 564.734 89.368C564.99 90.392 565.118 90.904 565.118 90.904H552.062C552.062 90.904 551.87 90.488 551.486 89.656C551.102 88.76 550.302 87.896 549.086 87.064C547.934 86.168 546.142 85.72 543.71 85.72C541.214 85.72 539.486 86.232 538.526 87.256C537.566 88.216 537.086 89.24 537.086 90.328C537.086 91.608 537.63 92.568 538.718 93.208C539.87 93.848 541.342 94.36 543.134 94.744L549.758 96.088C554.622 97.048 558.622 98.744 561.758 101.176C564.894 103.544 566.462 107 566.462 111.544C566.462 114.616 565.662 117.4 564.062 119.896C562.462 122.392 560.126 124.376 557.054 125.848C553.982 127.256 550.206 127.96 545.726 127.96ZM596.242 70.168V67C596.242 66.168 596.402 65.4 596.722 64.696C597.106 63.928 597.746 63.32 598.642 62.872L600.082 62.2C601.426 61.496 602.45 60.824 603.154 60.184C603.858 59.48 604.21 58.616 604.21 57.592C604.21 56.824 603.89 56.12 603.25 55.48C602.674 54.84 601.81 54.52 600.658 54.52C599.506 54.52 598.642 54.808 598.066 55.384C597.554 55.96 597.234 56.568 597.106 57.208C596.978 57.784 596.914 58.168 596.914 58.36H588.562C588.498 56.632 588.85 54.904 589.618 53.176C590.45 51.448 591.762 50.04 593.554 48.952C595.346 47.8 597.682 47.224 600.562 47.224C604.402 47.224 607.442 48.216 609.682 50.2C611.922 52.184 613.042 54.552 613.042 57.304C613.042 59.608 612.274 61.528 610.738 63.064C609.266 64.6 607.378 65.976 605.074 67.192L604.594 67.48V70.168H596.242ZM600.85 127.96C596.37 127.96 592.498 127.224 589.234 125.752C585.97 124.216 583.282 122.2 581.17 119.704C579.058 117.144 577.458 114.296 576.37 111.16C575.346 108.024 574.834 104.792 574.834 101.464C574.834 98.264 575.346 95.128 576.37 92.056C577.394 88.92 578.93 86.072 580.978 83.512C583.09 80.952 585.746 78.936 588.946 77.464C592.146 75.928 595.954 75.16 600.37 75.16C605.106 75.16 609.266 76.184 612.85 78.232C616.434 80.28 619.25 83.32 621.298 87.352C623.346 91.32 624.37 96.152 624.37 101.848V105.4H589.522C589.714 108.472 590.77 111.128 592.69 113.368C594.674 115.608 597.394 116.728 600.85 116.728C602.834 116.728 604.434 116.44 605.65 115.864C606.93 115.224 607.922 114.52 608.626 113.752C609.33 112.92 609.81 112.184 610.066 111.544C610.386 110.904 610.546 110.584 610.546 110.584H623.986C623.986 110.584 623.826 111.192 623.506 112.408C623.186 113.56 622.578 115 621.682 116.728C620.786 118.456 619.474 120.184 617.746 121.912C616.082 123.64 613.874 125.08 611.122 126.232C608.37 127.384 604.946 127.96 600.85 127.96ZM589.522 96.568H610.354C610.226 93.048 609.17 90.424 607.186 88.696C605.266 86.968 602.898 86.104 600.082 86.104C597.266 86.104 594.866 87.032 592.882 88.888C590.962 90.68 589.842 93.24 589.522 96.568Z" fill="white"/>
</g>
<defs>
<filter id="filter0_dd_2017_204" x="0" y="0" width="784" height="186" filterUnits="userSpaceOnUse" color-interpolation-filters="sRGB">
<feFlood flood-opacity="0" result="BackgroundImageFix"/>
<feColorMatrix in="SourceAlpha" type="matrix" values="0 0 0 0 0 0 0 0 0 0 0 0 0 0 0 0 0 0 127 0" result="hardAlpha"/>
<feOffset dy="4"/>
<feGaussianBlur stdDeviation="2"/>
<feComposite in2="hardAlpha" operator="out"/>
<feColorMatrix type="matrix" values="0 0 0 0 0 0 0 0 0 0 0 0 0 0 0 0 0 0 0.25 0"/>
<feBlend mode="normal" in2="BackgroundImageFix" result="effect1_dropShadow_2017_204"/>
<feColorMatrix in="SourceAlpha" type="matrix" values="0 0 0 0 0 0 0 0 0 0 0 0 0 0 0 0 0 0 127 0" result="hardAlpha"/>
<feOffset dy="-4"/>
<feGaussianBlur stdDeviation="2"/>
<feComposite in2="hardAlpha" operator="out"/>
<feColorMatrix type="matrix" values="0 0 0 0 0 0 0 0 0 0 0 0 0 0 0 0 0 0 0.25 0"/>
<feBlend mode="normal" in2="effect1_dropShadow_2017_204" result="effect2_dropShadow_2017_204"/>
<feBlend mode="normal" in="SourceGraphic" in2="effect2_dropShadow_2017_204" result="shape"/>
</filter>
<filter id="filter1_d_2017_204" x="4" y="8" width="785" height="180" filterUnits="userSpaceOnUse" color-interpolation-filters="sRGB">
<feFlood flood-opacity="0" result="BackgroundImageFix"/>
<feColorMatrix in="SourceAlpha" type="matrix" values="0 0 0 0 0 0 0 0 0 0 0 0 0 0 0 0 0 0 127 0" result="hardAlpha"/>
<feOffset dx="9" dy="10"/>
<feComposite in2="hardAlpha" operator="out"/>
<feColorMatrix type="matrix" values="0 0 0 0 1 0 0 0 0 1 0 0 0 0 1 0 0 0 1 0"/>
<feBlend mode="normal" in2="BackgroundImageFix" result="effect1_dropShadow_2017_204"/>
<feBlend mode="normal" in="SourceGraphic" in2="effect1_dropShadow_2017_204" result="shape"/>
</filter>
<clipPath id="clip0_2017_204">
<rect width="126" height="95" fill="white" transform="translate(88 43)"/>
</clipPath>
</defs>
</svg>
